<?xml version="1.0" encoding="UTF-8" standalone="no"?>
<!DOCTYPE svg PUBLIC "-//W3C//DTD SVG 1.1//EN" "http://www.w3.org/Graphics/SVG/1.1/DTD/svg11.dtd">
<svg version="1.1" xmlns="http://www.w3.org/2000/svg" xmlns:xlink="http://www.w3.org/1999/xlink" preserveAspectRatio="xMidYMid meet" viewBox="0 0 32.44 32.47" width="32.44" height="32.47"><defs><path d="M28.08 0.02L28.27 0.03L28.46 0.06L28.65 0.1L28.83 0.14L29.01 0.19L29.19 0.24L29.37 0.3L29.54 0.37L29.71 0.45L29.87 0.53L30.03 0.62L30.19 0.71L30.34 0.81L30.49 0.92L30.64 1.03L30.78 1.15L30.92 1.27L31.05 1.39L31.17 1.53L31.3 1.66L31.41 1.8L31.52 1.95L31.63 2.1L31.73 2.25L31.82 2.41L31.91 2.57L31.99 2.74L32.07 2.91L32.14 3.08L32.2 3.25L32.25 3.43L32.3 3.61L32.34 3.8L32.38 3.99L32.41 4.17L32.43 4.37L32.44 4.56L32.44 4.76L32.44 27.71L32.44 27.91L32.43 28.1L32.41 28.29L32.38 28.48L32.34 28.67L32.3 28.85L32.25 29.04L32.2 29.21L32.14 29.39L32.07 29.56L31.99 29.73L31.91 29.9L31.82 30.06L31.73 30.22L31.63 30.37L31.52 30.52L31.41 30.67L31.3 30.81L31.17 30.94L31.05 31.07L30.92 31.2L30.78 31.32L30.64 31.44L30.49 31.55L30.34 31.66L30.19 31.76L30.03 31.85L29.87 31.94L29.71 32.02L29.54 32.1L29.37 32.16L29.19 32.23L29.01 32.28L28.83 32.33L28.65 32.37L28.46 32.41L28.27 32.43L28.08 32.45L27.89 32.47L27.69 32.47L20.02 32.47L20.02 20.99L24.84 20.99L25.79 15.28L20.02 15.28L20.02 11.41L25.79 11.41L25.79 5.71L20.02 5.71L19.79 5.71L19.56 5.73L19.33 5.75L19.1 5.78L18.88 5.82L18.65 5.87L18.44 5.93L18.22 6L18.01 6.07L17.81 6.16L17.6 6.25L17.4 6.35L17.21 6.45L17.02 6.56L16.84 6.68L16.66 6.81L16.48 6.94L16.31 7.08L16.15 7.23L15.99 7.38L15.84 7.54L15.69 7.7L15.56 7.87L15.42 8.05L15.3 8.23L15.18 8.41L15.06 8.6L14.96 8.79L14.86 8.99L14.77 9.2L14.69 9.4L14.61 9.61L14.55 9.83L14.49 10.04L14.44 10.27L14.4 10.49L14.36 10.72L14.34 10.95L14.33 11.18L14.32 11.41L14.32 15.28L10.52 15.28L10.52 20.99L14.32 20.99L14.32 32.47L4.75 32.47L4.56 32.47L4.36 32.45L4.17 32.43L3.98 32.41L3.8 32.37L3.61 32.33L3.43 32.28L3.25 32.23L3.08 32.16L2.91 32.1L2.74 32.02L2.57 31.94L2.41 31.85L2.25 31.76L2.1 31.66L1.95 31.55L1.8 31.44L1.66 31.32L1.53 31.2L1.39 31.07L1.27 30.94L1.15 30.81L1.03 30.67L0.92 30.52L0.81 30.37L0.71 30.22L0.62 30.06L0.53 29.9L0.45 29.73L0.38 29.56L0.31 29.39L0.24 29.21L0.19 29.04L0.14 28.85L0.1 28.67L0.06 28.48L0.04 28.29L0.02 28.1L0.01 27.91L0 27.71L0 4.76L0.01 4.56L0.02 4.37L0.04 4.17L0.06 3.99L0.1 3.8L0.14 3.61L0.19 3.43L0.24 3.25L0.31 3.08L0.38 2.91L0.45 2.74L0.53 2.57L0.62 2.41L0.71 2.25L0.81 2.1L0.92 1.95L1.03 1.8L1.15 1.66L1.27 1.53L1.39 1.39L1.53 1.27L1.66 1.15L1.8 1.03L1.95 0.92L2.1 0.81L2.25 0.71L2.41 0.62L2.57 0.53L2.74 0.45L2.91 0.37L3.08 0.3L3.25 0.24L3.43 0.19L3.61 0.14L3.8 0.1L3.98 0.06L4.17 0.03L4.36 0.02L4.56 0L4.75 0L27.69 0L27.89 0L28.08 0.02Z" id="bQ7MHP8UC"></path></defs><g><g><g><use xlink:href="#bQ7MHP8UC" opacity="1" fill="#4267b2" fill-opacity="1"></use><g><use xlink:href="#bQ7MHP8UC" opacity="1" fill-opacity="0" stroke="#000000" stroke-width="1" stroke-opacity="0"></use></g></g></g></g></svg>